<?xml version="1.0" encoding="utf-8"?>
<!-- Generator: Adobe Illustrator 20.1.0, SVG Export Plug-In . SVG Version: 6.00 Build 0)  -->
<svg version="1.1" id="Calque_1" xmlns="http://www.w3.org/2000/svg" xmlns:xlink="http://www.w3.org/1999/xlink" x="0px" y="0px"
	 viewBox="0 0 257.8 182.8" style="enable-background:new 0 0 257.8 182.8;" xml:space="preserve">
<style type="text/css">
	.st0{fill:url(#SVGID_1_);}
	.st1{fill:url(#SVGID_2_);}
	.st2{fill:#FFFFFF;}
	.st3{fill:url(#SVGID_3_);}
	.st4{fill:#97C229;}
</style>
<g>
	<linearGradient id="SVGID_1_" gradientUnits="userSpaceOnUse" x1="175.1919" y1="55.8251" x2="175.1919" y2="132.1512">
		<stop  offset="0" style="stop-color:#000000"/>
		<stop  offset="9.343082e-02" style="stop-color:#0F0F0F"/>
		<stop  offset="0.6041" style="stop-color:#363635"/>
		<stop  offset="1" style="stop-color:#3C3C3B"/>
	</linearGradient>
	<path class="st0" d="M137.1,110.8c2-4.9,6.3-13.5,12.6-17.5c9.1-5.8,16-6,21.9-12.9c5.9-6.9,11.9-15.5,11.9-15.5
		c0,0-3.3,9-6.7,15.5c-3.3,6.3-12.8,12.4-15.8,14.2c0,0-5.1-0.3-7.3-1c2.1,0.8,2.7,1.2,8.2,1.5c2.9,0.1,10,0.4,16.9-5.5
		c8.7-7.5,11.4-13.4,9-19.5s-3-10.1-2.3-15.5c0.7-5.4-0.8-17.6-3.3-22c-2.5-4.4-7.5-21.2-7.9-24.5c-0.4-3.3-0.9-7.5,3.5,0.7
		c4.4,8.2,5.4,13.6,7.2,17.6c1.3,3,4.6,8.6,6.6,8c0.1,1.3-0.3,3.3-2.1,8c1.9-2.5,3.4-10.1,3.4-10.1s0,0,0,0c0.1-0.3,0.1-0.6,0.1-0.9
		c0.9-7.8,2.2-10.3,0.5-15.9c-1.8-6.4-7.7-23.9-0.2-9.9c4.4,8.1,5.2,9.7,5.6,17.9c0.2,4.8-1.9,11.4-3.2,17.4
		c-1.3,5.8-2.2,12.5-2.5,16.9c-0.3,3.4-0.2,12.1,2.7,12.2c-0.5,1.1-1.6,2.5-3.9,4.2c1.1-0.4,3.7-3,5.6-4.9c0.5-0.4,1-0.9,1.5-1.6
		c0.1-0.1,0.2-0.2,0.3-0.4c0,0,0,0,0,0l0,0c5.8-7.2,7.3-10.3,9.2-20.6c1.9-10.6,5.2-17.4,4.6-10.7c-0.6,6.8-1.8,19-5,26.8
		c-3.3,7.8-8.2,10.9-11,15.3c-2.8,4.4-7.9,14.6-17.2,19.9c-9.4,5.4-13.2,5.5-19.8,5.9c-6.6,0.4-5.9,0.2-9.1,1.1
		c-3.1,0.8-8.5,2.3-12.9,6.7C137.6,112,136.8,111.4,137.1,110.8z"/>
	
		<linearGradient id="SVGID_2_" gradientUnits="userSpaceOnUse" x1="286.9861" y1="55.8251" x2="286.9861" y2="132.1512" gradientTransform="matrix(-1 0 0 1 369.5977 0)">
		<stop  offset="0" style="stop-color:#000000"/>
		<stop  offset="9.343082e-02" style="stop-color:#0F0F0F"/>
		<stop  offset="0.6041" style="stop-color:#363635"/>
		<stop  offset="1" style="stop-color:#3C3C3B"/>
	</linearGradient>
	<path class="st1" d="M120.7,110.8c-2-4.9-6.3-13.5-12.6-17.5c-9.1-5.8-16-6-21.9-12.9c-5.9-6.9-11.9-15.5-11.9-15.5
		c0,0,3.3,9,6.7,15.5c3.3,6.3,12.8,12.4,15.8,14.2c0,0,5.1-0.3,7.3-1c-2.1,0.8-2.7,1.2-8.2,1.5C93,95,86,95.4,79.1,89.4
		c-8.7-7.5-11.4-13.4-9-19.5c2.4-6,3-10.1,2.3-15.5c-0.7-5.4,0.8-17.6,3.3-22s7.5-21.2,7.9-24.5c0.4-3.3,0.9-7.5-3.5,0.7
		c-4.4,8.2-5.4,13.6-7.2,17.6c-1.3,3-4.6,8.6-6.6,8c-0.1,1.3,0.3,3.3,2.1,8C66.5,39.7,64.9,32,64.9,32l0,0c-0.1-0.3-0.1-0.6-0.1-0.9
		c-0.9-7.8-2.2-10.3-0.5-15.9c1.8-6.4,7.7-23.9,0.2-9.9c-4.4,8.1-5.2,9.7-5.6,17.9C58.6,28,60.7,34.6,62,40.6
		c1.3,5.8,2.2,12.5,2.5,16.9c0.3,3.4,0.2,12.1-2.7,12.2c0.5,1.1,1.6,2.5,3.9,4.2c-1.1-0.4-3.7-3-5.6-4.9c-0.5-0.4-1-0.9-1.5-1.6
		c-0.1-0.1-0.2-0.2-0.3-0.4c0,0,0,0,0,0l0,0c-5.8-7.2-7.3-10.3-9.2-20.6c-1.9-10.6-5.2-17.4-4.6-10.7c0.6,6.8,1.8,19,5,26.8
		c3.3,7.8,8.2,10.9,11,15.3c2.8,4.4,7.9,14.6,17.2,19.9c9.4,5.4,13.2,5.5,19.8,5.9c6.6,0.4,5.9,0.2,9.1,1.1
		c3.1,0.8,8.5,2.3,12.9,6.7C120.2,112,121,111.4,120.7,110.8z"/>
</g>
<g>
	<g>
		<path class="st2" d="M24.6,175.2c-3.2,0-5.6-2.5-8-5c-2.4,3.1-5.1,4.6-9,4.6c-5.1,0-7.6-3.1-7.6-6.4c0-3.4,2.4-6.2,6.7-6.2
			c2,0,4.5,1.1,7.2,2.5c0.9-2,1.8-4.3,3-7.2c-7.7-1-13.3-5.4-13.3-13.2c0-8.1,5.3-19.2,12.7-19.2c3.7,0,5.5,2.4,5.5,5.5
			c0,8.5-5.7,15.3-8.4,15.3c-0.5,0-1-0.3-1.2-0.9c2.2-3,5.8-11.9,5.8-16.1c0-1.1-0.3-1.8-0.8-2.1c-3.8,1.4-8.4,10.8-8.4,17.7
			c0,6,2.2,9.5,8.9,10.9c3.6-9.1,8.2-21.2,11.7-27.5c1.5-2.8,4.4-7.2,7.4-7.2c4,0,6.9,3.3,6.9,7.1c0,10-7.3,27.5-20.8,29.7
			c-1.9,4.5-3.1,7.5-4.5,9.9c3.1,1.9,5.7,2.8,8,2.8c2.3,0,4-1.4,4.9-3.9c0.7,0,1.1,0.5,1.1,1.5C32.4,170.6,30,175.3,24.6,175.2
			L24.6,175.2z M7.7,173c2.1-1.1,3.6-3.1,5.1-6c-1.8-1.3-3.6-2.2-5.5-2.5c-1.6,0.6-2.4,2.3-2.4,4.4C4.9,170.6,5.9,172.5,7.7,173z
			 M23.9,155.1C34,151.4,39,133.8,39,126.4c0-1.7-0.3-2.8-0.8-3.1c-3,1.2-8.8,17.1-12.3,26.5C25.3,151.6,24.6,153.4,23.9,155.1z"/>
		<path class="st2" d="M61.2,141.4c0.5-0.1,1.1,0.1,1.1,0.6c0,2.1-7.6,23.8-17.8,23.8c-4.1,0-7.5-2.4-7.5-6.1c0-5.4,3-14.2,7.2-18.8
			c1.4-1.6,3.1-2.7,5.6-2.7c2.7,0,5.7,1.3,5.7,5.2c0,4.5-5.4,15.2-11.9,15.2c-0.5,0-1-0.1-1.5-0.2c-0.1,0.6-0.1,1.1-0.1,1.6
			c0,1.7,0.6,2.8,2.3,3.4C49.1,162.4,57.2,151.2,61.2,141.4z M42.3,156.9c4.8-0.8,9.4-11.6,9.4-15.5c0-0.6-0.1-1-0.4-1.2
			C48.9,140.4,43.8,150.4,42.3,156.9z"/>
		<path class="st2" d="M52.5,161.5c0-1.3,0.6-2.3,1.8-2.4c1,1.7,2.5,3.9,3.5,4.5c1.7-1.6,3.2-7.1,3.6-18.4c0.1-1.3-0.8-1.5-0.8-2.2
			c0-0.1,0.1-0.3,0.1-0.4c3.4-8.8,5-11.8,7.8-11.8c2,0,3.2,2.1,3.8,4.3c-3.1,1.4-8.4,3.8-8.4,6.9c0,2.2,1.8,7.7,1.7,12.7
			c0,6.2-2.7,11.1-7.3,11.1C54.2,165.9,52.5,163.5,52.5,161.5z"/>
		<path class="st2" d="M75.7,159.4c0-4,1.5-10.2,3.9-16.7c4-11,9.1-21.6,16.2-21.6c2.9,0,4.4,1.8,4.4,3.7c0,5.2-9.9,24.2-18.3,26.6
			c-0.8,3.2-1.4,6-1.4,8.3c-0.1,1.6,0.2,2.9,0.8,3.8c2.2-1.1,5.3-5,5.3-9.3c0-1.1-0.3-2.1-0.7-2.9c0.4-0.4,0.9-0.6,1.5-0.6
			c1.2,0,2.7,0.7,3.4,2c2.5-1,5.2-3,7.6-9c0.3,0,0.4,0.2,0.4,0.7c0,3.3-3.8,8.4-7.5,10c0,6-5.5,11.5-9.9,11.6
			C78.9,165.9,75.7,164.4,75.7,159.4z M82.6,149.1c5.1-4.2,13.3-19.3,13.4-24.8c0-0.8-0.2-1.4-0.4-1.6c-4.6,1.9-8.1,12.3-11.5,22.1
			C83.5,146.3,83,147.7,82.6,149.1z"/>
		<path class="st2" d="M92.7,159.2c0-4.9,3.1-12.4,6.4-17.2c1-1.4,2.3-2.1,3.6-2.1c0.8,0,1.5,0.3,2,0.8c-3.4,5.6-7.3,16.5-7.3,20.5
			c0,1.1,0.3,2.1,0.9,2.8c2.5-0.7,9.3-16.3,9.1-24.2c-2.8-0.5-4.6-1.8-4.6-3.3c0-0.8,1.4-2.4,2.7-2.4c2.4,0,5.1,2.2,6.2,4.7
			c0.9,0.1,2,0.1,3,0.1c1.1,0,2.3,0,3.6-0.1c0.1,0.2,0.1,0.4,0.1,0.6c0,1-1.2,1.6-3,1.6c-1,0-2.1-0.2-3.3-0.6
			c0.1,0.2,0.1,0.4,0.1,0.5c0,7.3-6.5,24.8-13.9,24.8C94.9,165.8,92.7,163.5,92.7,159.2z"/>
		<path class="st2" d="M109.8,162.6c0-5.2,7.7-19,8.1-22.5c-1.1,0.4-1.9,0.5-2.4,0.5c-0.9,0-1.2-0.3-1.2-0.8c0-0.3,0.1-0.5,0.2-0.8
			c1.6,0.1,3.1-0.3,4.5-0.3c2.1,0,3.4,1,3.4,2.9c0,3.8-6.8,16.4-7.7,21.5c2.9-1.6,9.8-11.8,13.8-21.6c0.5-0.1,1.1,0.1,1.1,0.7
			c0,1.6-3.4,9.1-5.6,13.1c-3.5,6.2-7.6,10.6-10.1,10.6C111.8,165.9,109.8,164.4,109.8,162.6z M127.6,129.2c0,1.9-2.8,4.1-4.8,5.7
			c-0.9,0.7-1.7,1.3-2.1,1.7c-0.4-0.1-0.8-0.3-0.8-0.9c0-0.4,0.2-0.9,0.6-1.6c0.6-1.2,1.6-3.1,2.7-6.7
			C125.6,127.4,127.6,127.4,127.6,129.2z"/>
		<path class="st2" d="M119.7,161.5c0-1.3,0.6-2.3,1.8-2.4c1,1.7,2.5,3.9,3.5,4.5c1.7-1.6,3.2-7.1,3.6-18.4c0.1-1.3-0.8-1.5-0.8-2.2
			c0-0.1,0.1-0.3,0.1-0.4c3.4-8.8,5-11.8,7.8-11.8c2,0,3.2,2.1,3.8,4.3c-3.1,1.4-8.4,3.8-8.4,6.9c0,2.2,1.8,7.7,1.7,12.7
			c0,6.2-2.7,11.1-7.3,11.1C121.4,165.9,119.7,163.5,119.7,161.5z"/>
		<path class="st2" d="M145.6,166c-1.8,0-4-2-4-4.4c0-3,1.2-7.4,2.8-11.4c2.4-6.2,5.4-11.9,9-11.9c1.9,0,4.1,1.7,4.4,4.7
			c2.9-7.3,6.6-16.2,9-21.5c1.8-0.1,4,0.1,4,1.2c0,1.1-1.3,3.6-2.4,6.5c-2.1,5.3-5.1,12.8-8.5,21.3c-1.9,4.9-4,9.8-5,13.2
			c3.9-1.5,9.9-12.1,13.2-20.1c0.4-0.1,0.4,0.1,0.4,0.3c0,2.7-8.6,22-14.2,22c-1.4,0-2.8-1.5-2.8-3c0-1.8,1.1-3.7,2.2-7
			C150.8,161.8,148.1,166,145.6,166z M149.5,150.9c-2.7,6.4-3.9,11.1-3.7,12.5c2.9-0.4,6.2-7.5,7.8-11.2c1.2-2.8,2.9-5.8,2.9-7.7
			c0.1-1.8-0.8-2.9-1.7-2.9C153.8,141.6,152.4,143.7,149.5,150.9z"/>
		<path class="st2" d="M165.5,166c-1.5,0-4.1-1-4.1-3.6c0-5.8,7.5-19.5,8.1-23.7h1.3c2.3,0,3,0.6,3,1.8c0,3.2-7.9,17.6-7.9,22.2
			c0,0.3,0,0.5,0.1,0.6c2.1-0.1,5.7-5.4,8.8-11.7c1.9-3.8,3.4-8,5.1-12.8c0.7-0.2,1.3-0.2,1.9-0.2c1.2,0,2.1,0.4,2.1,1.4
			c0,1.4-1.5,6.3-3.4,11.2c-2,5.1-4.4,10.3-4.9,12.2c2.4-0.9,4.5-3.8,6-6.5c0.4-0.1,0.7,0.1,0.7,0.6c0,2.3-4.1,8.3-7.3,8.3
			c-1.6,0-3.4-1.3-3.4-3.1c0-1.1,0.6-2.7,1.5-4.8C170.2,163.3,167.8,166,165.5,166z"/>
		<path class="st2" d="M197.1,165.9c-4.2,0-7.4-2.5-7.4-6.2c0-6.1,3.3-16.7,8.3-20.5c0.8-0.6,2.5-1,3.7-1c3.1,0,6,1.9,6,5.9
			c0,3.4-2.3,10.8-6.4,10.8c-0.8,0-1.8-0.5-2.1-1.4c1.7-2,4.6-8.8,4.6-11.9c0-0.7-0.1-1.2-0.4-1.4c-2.8,0.2-8.5,13.1-8.5,19.5
			c0,1.6,0.4,2.8,1.3,3.4c6.9-1.2,13.1-11.5,16.4-19.6c0.4-0.1,0.4,0.1,0.4,0.3C213,146.5,204.2,165.9,197.1,165.9z"/>
		<path class="st2" d="M230.7,141.4c0.5-0.1,1.1,0.1,1.1,0.6c0,2.1-7.6,23.8-17.8,23.8c-4.1,0-7.5-2.4-7.5-6.1
			c0-5.4,3-14.2,7.2-18.8c1.4-1.6,3.1-2.7,5.6-2.7c2.7,0,5.7,1.3,5.7,5.2c0,4.5-5.4,15.2-11.9,15.2c-0.5,0-1-0.1-1.5-0.2
			c-0.1,0.6-0.1,1.1-0.1,1.6c0,1.7,0.6,2.8,2.3,3.4C218.6,162.4,226.8,151.2,230.7,141.4z M211.9,156.9c4.8-0.8,9.4-11.6,9.4-15.5
			c0-0.6-0.1-1-0.4-1.2C218.4,140.4,213.3,150.4,211.9,156.9z"/>
		<path class="st2" d="M226,161.6c0-2.6,7.6-14.9,7.6-16.5c0-0.7-0.5-1.1-1.1-1.5c-1.9-1.2-2.4-2.3-2.4-4.6c0-5.6,2.2-7.9,4.2-7.9
			c1,0,2,0.5,2.6,1.5c-1.2,1.6-2.5,3.8-4.3,7.2c-0.3,0.5-0.4,0.8-0.4,1.3c0,0.4,0.2,0.7,0.5,0.8c3.9,1.3,5.2,1.3,5.2,3.7
			c0,1.7-2.1,6.1-4,10.2c-1.5,3.3-2.9,6.4-3,7.9c4.5-2.1,10-12.1,13.4-20.2c0.4-0.1,0.4,0.1,0.4,0.3c0,2.7-8.4,22-14.9,22
			C227.7,165.9,226,163.8,226,161.6z"/>
		<path class="st2" d="M232.3,178.4c0-3.9,5.2-17.5,9.1-27.6c-0.7-0.1-1.4-0.3-2.1-0.5c-0.1-0.5,0.1-1.1,1.1-1.1c0.5,0,1.1,0,1.6,0
			c4.7-12.2,9.6-23.3,11.8-27.7c2.1-0.1,4,0.7,4,1.8c0,1-1.9,4.9-3.5,8.6c-2.3,5.3-4.9,11.7-7.1,17.2c2,0,4.1,0,6.3,0
			c0.1,0.2,0.2,0.3,0.2,0.5c0,1.1-2.9,1.7-7,1.7c1.6,0.5,2.2,2,2.2,5.3c0,7.3-6.9,26.3-11.5,26.3
			C235.1,182.8,232.3,181.1,232.3,178.4z M246.4,154.4c0-1.1-0.1-1.8-0.3-2.2c-4.7,12.9-10.6,25.5-8.8,28.3
			C239.9,179.4,246.5,162.6,246.4,154.4z"/>
	</g>
	<linearGradient id="SVGID_3_" gradientUnits="userSpaceOnUse" x1="70.7408" y1="156.7798" x2="70.7521" y2="156.7798">
		<stop  offset="0" style="stop-color:#000000"/>
		<stop  offset="9.343082e-02" style="stop-color:#0F0F0F"/>
		<stop  offset="0.6041" style="stop-color:#363635"/>
		<stop  offset="1" style="stop-color:#3C3C3B"/>
	</linearGradient>
	<path class="st3" d="M70.8,156.8C70.7,156.8,70.7,156.8,70.8,156.8L70.8,156.8C70.7,156.8,70.8,156.8,70.8,156.8z"/>
	<g>
		<path d="M24.6,175.2c-3.2,0-5.6-2.5-8-5c-2.4,3.1-5.1,4.6-9,4.6c-5.1,0-7.6-3.1-7.6-6.4c0-3.4,2.4-6.2,6.7-6.2
			c2,0,4.5,1.1,7.2,2.5c0.9-2,1.8-4.3,3-7.2c-7.7-1-13.3-5.4-13.3-13.2c0-8.1,5.3-19.2,12.7-19.2c3.7,0,5.5,2.4,5.5,5.5
			c0,8.5-5.7,15.3-8.4,15.3c-0.5,0-1-0.3-1.2-0.9c2.2-3,5.8-11.9,5.8-16.1c0-1.1-0.3-1.8-0.8-2.1c-3.8,1.4-8.4,10.8-8.4,17.7
			c0,6,2.2,9.5,8.9,10.9c3.6-9.1,8.2-21.2,11.7-27.5c1.5-2.8,4.4-7.2,7.4-7.2c4,0,6.9,3.3,6.9,7.1c0,10-7.3,27.5-20.8,29.7
			c-1.9,4.5-3.1,7.5-4.5,9.9c3.1,1.9,5.7,2.8,8,2.8c2.3,0,4-1.4,4.9-3.9c0.7,0,1.1,0.5,1.1,1.5C32.4,170.6,30,175.3,24.6,175.2
			L24.6,175.2z M7.7,173c2.1-1.1,3.6-3.1,5.1-6c-1.8-1.3-3.6-2.2-5.5-2.5c-1.6,0.6-2.4,2.3-2.4,4.4C4.9,170.6,5.9,172.5,7.7,173z
			 M23.9,155.1C34,151.4,39,133.8,39,126.4c0-1.7-0.3-2.8-0.8-3.1c-3,1.2-8.8,17.1-12.3,26.5C25.3,151.6,24.6,153.4,23.9,155.1z"/>
		<path d="M61.2,141.4c0.5-0.1,1.1,0.1,1.1,0.6c0,2.1-7.6,23.8-17.8,23.8c-4.1,0-7.5-2.4-7.5-6.1c0-5.4,3-14.2,7.2-18.8
			c1.4-1.6,3.1-2.7,5.6-2.7c2.7,0,5.7,1.3,5.7,5.2c0,4.5-5.4,15.2-11.9,15.2c-0.5,0-1-0.1-1.5-0.2c-0.1,0.6-0.1,1.1-0.1,1.6
			c0,1.7,0.6,2.8,2.3,3.4C49.1,162.4,57.2,151.2,61.2,141.4z M42.3,156.9c4.8-0.8,9.4-11.6,9.4-15.5c0-0.6-0.1-1-0.4-1.2
			C48.9,140.4,43.8,150.4,42.3,156.9z"/>
		<path d="M52.5,161.5c0-1.3,0.6-2.3,1.8-2.4c1,1.7,2.5,3.9,3.5,4.5c1.7-1.6,3.2-7.1,3.6-18.4c0.1-1.3-0.8-1.5-0.8-2.2
			c0-0.1,0.1-0.3,0.1-0.4c3.4-8.8,5-11.8,7.8-11.8c2,0,3.2,2.1,3.8,4.3c-3.1,1.4-8.4,3.8-8.4,6.9c0,2.2,1.8,7.7,1.7,12.7
			c0,6.2-2.7,11.1-7.3,11.1C54.2,165.9,52.5,163.5,52.5,161.5z"/>
		<path d="M75.7,159.4c0-4,1.5-10.2,3.9-16.7c4-11,9.1-21.6,16.2-21.6c2.9,0,4.4,1.8,4.4,3.7c0,5.2-9.9,24.2-18.3,26.6
			c-0.8,3.2-1.4,6-1.4,8.3c-0.1,1.6,0.2,2.9,0.8,3.8c2.2-1.1,5.3-5,5.3-9.3c0-1.1-0.3-2.1-0.7-2.9c0.4-0.4,0.9-0.6,1.5-0.6
			c1.2,0,2.7,0.7,3.4,2c2.5-1,5.2-3,7.6-9c0.3,0,0.4,0.2,0.4,0.7c0,3.3-3.8,8.4-7.5,10c0,6-5.5,11.5-9.9,11.6
			C78.9,165.9,75.7,164.4,75.7,159.4z M82.6,149.1c5.1-4.2,13.3-19.3,13.4-24.8c0-0.8-0.2-1.4-0.4-1.6c-4.6,1.9-8.1,12.3-11.5,22.1
			C83.5,146.3,83,147.7,82.6,149.1z"/>
		<path d="M92.7,159.2c0-4.9,3.1-12.4,6.4-17.2c1-1.4,2.3-2.1,3.6-2.1c0.8,0,1.5,0.3,2,0.8c-3.4,5.6-7.3,16.5-7.3,20.5
			c0,1.1,0.3,2.1,0.9,2.8c2.5-0.7,9.3-16.3,9.1-24.2c-2.8-0.5-4.6-1.8-4.6-3.3c0-0.8,1.4-2.4,2.7-2.4c2.4,0,5.1,2.2,6.2,4.7
			c0.9,0.1,2,0.1,3,0.1c1.1,0,2.3,0,3.6-0.1c0.1,0.2,0.1,0.4,0.1,0.6c0,1-1.2,1.6-3,1.6c-1,0-2.1-0.2-3.3-0.6
			c0.1,0.2,0.1,0.4,0.1,0.5c0,7.3-6.5,24.8-13.9,24.8C94.9,165.8,92.7,163.5,92.7,159.2z"/>
		<path d="M109.8,162.6c0-5.2,7.7-19,8.1-22.5c-1.1,0.4-1.9,0.5-2.4,0.5c-0.9,0-1.2-0.3-1.2-0.8c0-0.3,0.1-0.5,0.2-0.8
			c1.6,0.1,3.1-0.3,4.5-0.3c2.1,0,3.4,1,3.4,2.9c0,3.8-6.8,16.4-7.7,21.5c2.9-1.6,9.8-11.8,13.8-21.6c0.5-0.1,1.1,0.1,1.1,0.7
			c0,1.6-3.4,9.1-5.6,13.1c-3.5,6.2-7.6,10.6-10.1,10.6C111.8,165.9,109.8,164.4,109.8,162.6z M127.6,129.2c0,1.9-2.8,4.1-4.8,5.7
			c-0.9,0.7-1.7,1.3-2.1,1.7c-0.4-0.1-0.8-0.3-0.8-0.9c0-0.4,0.2-0.9,0.6-1.6c0.6-1.2,1.6-3.1,2.7-6.7
			C125.6,127.4,127.6,127.4,127.6,129.2z"/>
		<path d="M119.7,161.5c0-1.3,0.6-2.3,1.8-2.4c1,1.7,2.5,3.9,3.5,4.5c1.7-1.6,3.2-7.1,3.6-18.4c0.1-1.3-0.8-1.5-0.8-2.2
			c0-0.1,0.1-0.3,0.1-0.4c3.4-8.8,5-11.8,7.8-11.8c2,0,3.2,2.1,3.8,4.3c-3.1,1.4-8.4,3.8-8.4,6.9c0,2.2,1.8,7.7,1.7,12.7
			c0,6.2-2.7,11.1-7.3,11.1C121.4,165.9,119.7,163.5,119.7,161.5z"/>
		<path class="st4" d="M145.6,166c-1.8,0-4-2-4-4.4c0-3,1.2-7.4,2.8-11.4c2.4-6.2,5.4-11.9,9-11.9c1.9,0,4.1,1.7,4.4,4.7
			c2.9-7.3,6.6-16.2,9-21.5c1.8-0.1,4,0.1,4,1.2c0,1.1-1.3,3.6-2.4,6.5c-2.1,5.3-5.1,12.8-8.5,21.3c-1.9,4.9-4,9.8-5,13.2
			c3.9-1.5,9.9-12.1,13.2-20.1c0.4-0.1,0.4,0.1,0.4,0.3c0,2.7-8.6,22-14.2,22c-1.4,0-2.8-1.5-2.8-3c0-1.8,1.1-3.7,2.2-7
			C150.8,161.8,148.1,166,145.6,166z M149.5,150.9c-2.7,6.4-3.9,11.1-3.7,12.5c2.9-0.4,6.2-7.5,7.8-11.2c1.2-2.8,2.9-5.8,2.9-7.7
			c0.1-1.8-0.8-2.9-1.7-2.9C153.8,141.6,152.4,143.7,149.5,150.9z"/>
		<path class="st4" d="M165.5,166c-1.5,0-4.1-1-4.1-3.6c0-5.8,7.5-19.5,8.1-23.7h1.3c2.3,0,3,0.6,3,1.8c0,3.2-7.9,17.6-7.9,22.2
			c0,0.3,0,0.5,0.1,0.6c2.1-0.1,5.7-5.4,8.8-11.7c1.9-3.8,3.4-8,5.1-12.8c0.7-0.2,1.3-0.2,1.9-0.2c1.2,0,2.1,0.4,2.1,1.4
			c0,1.4-1.5,6.3-3.4,11.2c-2,5.1-4.4,10.3-4.9,12.2c2.4-0.9,4.5-3.8,6-6.5c0.4-0.1,0.7,0.1,0.7,0.6c0,2.3-4.1,8.3-7.3,8.3
			c-1.6,0-3.4-1.3-3.4-3.1c0-1.1,0.6-2.7,1.5-4.8C170.2,163.3,167.8,166,165.5,166z"/>
		<path class="st4" d="M197.1,165.9c-4.2,0-7.4-2.5-7.4-6.2c0-6.1,3.3-16.7,8.3-20.5c0.8-0.6,2.5-1,3.7-1c3.1,0,6,1.9,6,5.9
			c0,3.4-2.3,10.8-6.4,10.8c-0.8,0-1.8-0.5-2.1-1.4c1.7-2,4.6-8.8,4.6-11.9c0-0.7-0.1-1.2-0.4-1.4c-2.8,0.2-8.5,13.1-8.5,19.5
			c0,1.6,0.4,2.8,1.3,3.4c6.9-1.2,13.1-11.5,16.4-19.6c0.4-0.1,0.4,0.1,0.4,0.3C213,146.5,204.2,165.9,197.1,165.9z"/>
		<path class="st4" d="M230.7,141.4c0.5-0.1,1.1,0.1,1.1,0.6c0,2.1-7.6,23.8-17.8,23.8c-4.1,0-7.5-2.4-7.5-6.1
			c0-5.4,3-14.2,7.2-18.8c1.4-1.6,3.1-2.7,5.6-2.7c2.7,0,5.7,1.3,5.7,5.2c0,4.5-5.4,15.2-11.9,15.2c-0.5,0-1-0.1-1.5-0.2
			c-0.1,0.6-0.1,1.1-0.1,1.6c0,1.7,0.6,2.8,2.3,3.4C218.6,162.4,226.8,151.2,230.7,141.4z M211.9,156.9c4.8-0.8,9.4-11.6,9.4-15.5
			c0-0.6-0.1-1-0.4-1.2C218.4,140.4,213.3,150.4,211.9,156.9z"/>
		<path class="st4" d="M226,161.6c0-2.6,7.6-14.9,7.6-16.5c0-0.7-0.5-1.1-1.1-1.5c-1.9-1.2-2.4-2.3-2.4-4.6c0-5.6,2.2-7.9,4.2-7.9
			c1,0,2,0.5,2.6,1.5c-1.2,1.6-2.5,3.8-4.3,7.2c-0.3,0.5-0.4,0.8-0.4,1.3c0,0.4,0.2,0.7,0.5,0.8c3.9,1.3,5.2,1.3,5.2,3.7
			c0,1.7-2.1,6.1-4,10.2c-1.5,3.3-2.9,6.4-3,7.9c4.5-2.1,10-12.1,13.4-20.2c0.4-0.1,0.4,0.1,0.4,0.3c0,2.7-8.4,22-14.9,22
			C227.7,165.9,226,163.8,226,161.6z"/>
		<path class="st4" d="M232.3,178.4c0-3.9,5.2-17.5,9.1-27.6c-0.7-0.1-1.4-0.3-2.1-0.5c-0.1-0.5,0.1-1.1,1.1-1.1c0.5,0,1.1,0,1.6,0
			c4.7-12.2,9.6-23.3,11.8-27.7c2.1-0.1,4,0.7,4,1.8c0,1-1.9,4.9-3.5,8.6c-2.3,5.3-4.9,11.7-7.1,17.2c2,0,4.1,0,6.3,0
			c0.1,0.2,0.2,0.3,0.2,0.5c0,1.1-2.9,1.7-7,1.7c1.6,0.5,2.2,2,2.2,5.3c0,7.3-6.9,26.3-11.5,26.3
			C235.1,182.8,232.3,181.1,232.3,178.4z M246.4,154.4c0-1.1-0.1-1.8-0.3-2.2c-4.7,12.9-10.6,25.5-8.8,28.3
			C239.9,179.4,246.5,162.6,246.4,154.4z"/>
	</g>
</g>
</svg>
